<svg version="1.1" id="Layer_1" xmlns="http://www.w3.org/2000/svg" xmlns:xlink="http://www.w3.org/1999/xlink" x="0px" y="0px"
	 width="100%" viewBox="0 0 576 1024" enable-background="new 0 0 576 1024" xml:space="preserve">
<path fill="#000000" opacity="1.000000" stroke="none" 
	d="
M224.236374,509.557800 
	C231.028152,516.028625 232.026047,523.064880 227.326096,529.337097 
	C223.167450,534.886963 215.332275,536.376892 209.452515,532.743530 
	C206.481003,530.907227 204.352127,528.298401 203.613342,524.947632 
	C202.855820,521.511841 200.757431,519.544250 197.930084,517.850098 
	C180.509445,507.411407 163.129730,496.904449 145.738205,486.417206 
	C144.740768,485.815735 143.724670,485.236633 142.775818,484.564453 
	C135.782669,479.610535 135.798126,471.031189 143.098450,466.502289 
	C161.202728,455.270935 179.412582,444.208740 197.643524,433.183594 
	C200.462387,431.478912 202.371643,429.725647 203.240952,426.196320 
	C204.970596,419.174225 211.971146,414.966644 218.434204,416.258850 
	C225.736313,417.718842 230.578903,423.679932 230.247620,430.800781 
	C229.917816,437.889618 223.887848,444.081940 216.673141,444.274567 
	C213.522110,444.358734 210.900009,445.241180 208.275223,446.857513 
	C194.668121,455.236603 180.995422,463.509094 167.362915,471.847046 
	C165.693176,472.868317 163.796371,473.646118 162.522537,475.602264 
	C164.496994,478.304962 167.501801,479.481079 170.105881,481.086792 
	C181.582031,488.163422 193.159195,495.076080 204.657700,502.116852 
	C208.781326,504.641815 212.725967,507.307983 217.972382,506.951569 
	C220.095215,506.807373 222.074875,508.182434 224.236374,509.557800 
z"/>
<path fill="#000000" opacity="1.000000" stroke="none" 
	d="
M367.989960,533.291504 
	C361.763947,535.901123 356.381653,534.949097 352.092255,530.361267 
	C348.100739,526.092041 347.516998,520.809692 349.695190,515.444702 
	C352.084564,509.559479 356.765961,506.814819 363.024231,506.767944 
	C364.917236,506.753754 366.624725,506.429138 368.247375,505.431946 
	C383.851990,495.841888 399.471283,486.275787 415.073059,476.681152 
	C415.462585,476.441620 415.699310,475.953644 415.995697,475.595581 
	C415.418945,473.925140 413.911713,473.376068 412.682800,472.623810 
	C398.624512,464.017853 384.514008,455.497040 370.473419,446.862488 
	C367.702057,445.158142 364.900879,444.307404 361.605103,444.109314 
	C354.912689,443.707031 349.986938,439.115784 348.710632,432.796875 
	C347.466187,426.635468 350.056976,420.717957 355.253143,417.853424 
	C360.594666,414.908752 366.987091,415.658356 371.471069,419.757050 
	C372.968933,421.126221 374.668945,422.716797 374.800964,424.621704 
	C375.204193,430.438721 379.500214,432.562897 383.653351,435.080139 
	C400.881927,445.522247 418.094666,455.991364 435.245789,466.560028 
	C443.187988,471.454071 442.925964,479.946167 434.848846,484.868073 
	C416.650543,495.957520 398.471893,507.079376 380.242401,518.117310 
	C377.568420,519.736328 375.619659,521.441040 374.993805,524.847595 
	C374.312347,528.556702 371.818939,531.383972 367.989960,533.291504 
z"/>
<path fill="#000000" opacity="1.000000" stroke="none" 
	d="
M280.637817,543.742737 
	C296.068604,504.346100 311.359680,465.311371 326.657806,426.279358 
	C330.360596,416.832062 334.025452,407.369141 337.830933,397.963196 
	C339.464355,393.926025 342.653381,392.061035 347.003265,392.753754 
	C350.940430,393.380798 352.960724,396.065430 353.803162,399.803467 
	C354.232727,401.709564 353.607391,403.453308 352.944641,405.143524 
	C333.148376,455.629059 313.321289,506.102539 293.520905,556.586487 
	C291.771271,561.047424 288.693176,563.300537 283.861023,562.533203 
	C279.037445,561.767212 276.156616,557.267273 277.495758,552.564209 
	C278.313507,549.692322 279.487000,546.921753 280.637817,543.742737 
z"/>
<path fill="#000000" opacity="1.000000" stroke="none" 
	d="
M271.201843,503.460388 
	C277.660126,503.915039 283.807556,502.029022 289.858032,503.768372 
	C289.747894,512.919739 286.524139,516.258484 278.038757,516.233826 
	C272.706848,516.218323 267.374847,516.213257 262.042908,516.212280 
	C257.970428,516.211487 255.385712,514.151428 255.882751,510.125244 
	C257.227142,499.235229 253.451981,491.196503 246.166855,482.690308 
	C234.637421,469.228333 233.777573,452.697540 241.223740,436.635071 
	C248.634781,420.648315 262.223206,412.757660 279.515747,412.098114 
	C291.497833,411.641144 302.018219,416.365479 310.475952,424.964417 
	C318.709259,433.335266 318.844849,439.287598 311.524841,449.061279 
	C309.422333,448.552368 309.636230,446.517242 309.079468,445.102081 
	C304.075531,432.383484 292.368500,424.113495 279.537933,424.345886 
	C266.340118,424.584961 255.289368,432.711334 250.845520,445.445435 
	C246.347443,458.334900 249.743683,473.908630 260.604309,481.024658 
	C267.596954,485.606323 268.895447,490.836456 268.345520,497.998230 
	C268.192200,499.994812 267.043152,502.995728 271.201843,503.460388 
z"/>
<path fill="#000000" opacity="1.000000" stroke="none" 
	d="
M239.058640,633.303284 
	C230.841202,633.256470 230.838364,633.256470 230.831284,625.620117 
	C230.824036,617.813782 230.990891,610.002319 230.754578,602.203003 
	C230.619659,597.750549 232.494736,596.240601 236.693848,596.606628 
	C239.167084,596.822205 241.673523,596.639709 244.164612,596.670471 
	C256.070618,596.817505 260.129852,603.652222 254.157074,613.883972 
	C258.403168,617.277405 260.441101,621.571594 258.001984,626.903137 
	C255.579865,632.197693 250.774887,633.296265 245.519699,633.299622 
	C243.526596,633.300842 241.533478,633.301697 239.058640,633.303284 
M250.442261,625.148621 
	C252.440201,620.351807 250.857178,617.570801 245.560318,617.467468 
	C242.619629,617.410095 238.438492,615.424561 238.148071,621.565491 
	C237.864822,627.554688 241.511139,626.825378 245.147324,626.767761 
	C246.793900,626.741699 248.462173,626.775879 250.442261,625.148621 
M239.390991,603.682312 
	C237.502472,605.867920 238.338593,608.295166 238.624954,610.673584 
	C241.325684,612.074890 243.929886,611.336304 246.484833,610.760559 
	C248.462784,610.314941 249.681229,609.020508 249.592590,606.871643 
	C249.501862,604.672974 248.062164,603.576111 246.078247,603.392456 
	C244.116562,603.210938 242.121704,603.387939 239.390991,603.682312 
z"/>
<path fill="#000000" opacity="1.000000" stroke="none" 
	d="
M131.727570,601.765503 
	C139.032181,595.189148 147.108597,594.067383 154.924698,598.298767 
	C162.198486,602.236511 165.589981,609.527771 164.344940,618.550781 
	C163.303177,626.100525 157.417191,632.060852 149.253922,633.832458 
	C141.954422,635.416504 133.789780,632.023376 129.742325,625.723633 
	C125.151863,618.578735 125.793610,609.857666 131.727570,601.765503 
M154.693741,606.948364 
	C153.672806,606.106445 152.745819,605.100830 151.614487,604.451172 
	C147.017914,601.811768 140.768494,602.652954 137.323364,606.262878 
	C133.632156,610.130676 133.029449,617.453735 136.021194,622.084534 
	C138.843201,626.452576 144.535370,628.329529 149.686951,626.590759 
	C156.552979,624.273315 158.984009,615.820618 154.693741,606.948364 
z"/>
<path fill="#000000" opacity="1.000000" stroke="none" 
	d="
M290.241882,630.432129 
	C280.722687,635.849976 272.572632,635.318115 266.079010,629.101257 
	C259.456299,622.760864 257.985992,614.399658 262.078674,606.335083 
	C265.687256,599.224304 271.689423,595.657837 279.449432,595.945740 
	C287.147461,596.231201 293.183502,600.001465 296.253998,607.318115 
	C299.340973,614.674133 298.320892,621.632690 293.059937,627.791809 
	C292.308319,628.671692 291.384674,629.404724 290.241882,630.432129 
M267.464233,613.027710 
	C267.208466,622.497070 272.661102,628.398682 280.522491,627.161133 
	C286.287201,626.253662 290.529388,621.259033 290.621216,615.271118 
	C290.713165,609.275635 286.874969,604.284790 281.397369,603.277161 
	C274.473297,602.003479 270.174744,604.811157 267.464233,613.027710 
z"/>
<path fill="#000000" opacity="1.000000" stroke="none" 
	d="
M196.514160,626.360229 
	C189.051071,635.334351 179.176758,633.239990 169.820709,633.056824 
	C167.925232,633.019653 167.673737,631.194702 167.672104,629.645691 
	C167.661835,619.825256 167.702545,610.004883 167.690994,600.184448 
	C167.687943,597.587952 169.082291,596.683716 171.468018,596.710083 
	C175.628632,596.756165 179.814728,596.462585 183.946289,596.819214 
	C198.330017,598.060730 204.928696,613.260254 196.514160,626.360229 
M186.841003,604.374634 
	C183.862320,602.904541 180.671631,603.373047 177.532166,603.344421 
	C175.149384,603.322693 174.367859,604.638977 174.385498,606.827087 
	C174.429718,612.308411 174.401749,617.790161 174.417343,623.271790 
	C174.421829,624.848511 174.707367,626.118103 176.606873,626.645020 
	C182.065338,628.159058 189.350433,625.258362 191.656067,620.500488 
	C194.439011,614.757690 192.883011,608.795288 186.841003,604.374634 
z"/>
<path fill="#000000" opacity="1.000000" stroke="none" 
	d="
M210.352112,623.666626 
	C210.568542,626.692200 212.474701,626.693115 214.369720,626.708740 
	C217.702011,626.736145 221.034302,626.778931 224.366608,626.783264 
	C226.825912,626.786499 227.398224,628.269043 227.414886,630.380676 
	C227.432297,632.590454 226.220734,633.279236 224.264496,633.276306 
	C218.432449,633.267578 212.600189,633.246338 206.768387,633.286377 
	C203.952194,633.305725 202.920166,631.739502 202.921219,629.197998 
	C202.925186,619.700134 202.957581,610.202332 202.961349,600.704468 
	C202.962524,597.747559 204.428619,596.603149 207.337646,596.660278 
	C212.834457,596.768311 218.335114,596.699402 223.834015,596.671387 
	C226.047073,596.660095 227.891312,597.033997 227.852173,599.837769 
	C227.815750,602.447815 226.235779,603.234741 223.914398,603.232666 
	C220.581848,603.229797 217.248108,603.347534 213.917068,603.289124 
	C211.416656,603.245422 210.308426,604.261841 210.271332,606.832947 
	C210.233337,609.466248 211.039688,610.974304 213.914581,610.944580 
	C216.410950,610.918762 218.913406,610.977722 221.404755,611.133728 
	C223.375381,611.257141 224.338791,612.371216 224.288879,614.432251 
	C224.235931,616.618652 223.003220,617.317383 221.071472,617.328796 
	C219.405243,617.338562 217.710831,617.554016 216.078156,617.325867 
	C211.352066,616.665588 209.618454,618.724487 210.352112,623.666626 
z"/>
<path fill="#000000" opacity="1.000000" stroke="none" 
	d="
M99.487770,600.437622 
	C107.612892,594.641418 116.236565,594.320129 122.901100,599.492310 
	C124.322372,600.595398 126.905884,601.683777 125.189735,604.150452 
	C123.629265,606.393311 121.706207,607.036865 118.841911,605.225830 
	C110.785194,600.131775 102.960999,603.394470 100.881760,612.439819 
	C99.726028,617.467529 101.384499,621.764465 105.259087,624.909912 
	C109.306587,628.195801 113.851082,628.040771 118.316910,625.484680 
	C119.322342,624.909180 120.177216,623.973389 121.240067,623.616943 
	C123.122383,622.985657 124.459343,624.269531 125.444801,625.596313 
	C126.887367,627.538574 125.127808,628.722900 123.936775,629.707703 
	C118.517433,634.188538 112.357033,635.384827 105.690056,633.152527 
	C99.556999,631.099060 95.340080,626.867676 94.089867,620.525452 
	C92.655815,613.250671 93.307190,606.208374 99.487770,600.437622 
z"/>
<path fill="#000000" opacity="1.000000" stroke="none" 
	d="
M478.965759,610.002319 
	C478.980713,606.346619 478.937286,603.183105 479.037598,600.024170 
	C479.087128,598.465271 479.525635,596.939697 481.513855,596.911865 
	C483.500214,596.884033 484.033813,598.352173 484.041504,599.944580 
	C484.089691,609.929138 484.090942,619.914185 484.058319,629.898865 
	C484.053925,631.243164 483.783264,632.633911 482.165833,633.040710 
	C479.986786,633.588806 478.761749,632.135681 477.613922,630.677979 
	C472.157654,623.748962 466.730957,616.796448 461.273987,609.867920 
	C460.277222,608.602356 459.188690,607.409119 457.308685,605.204895 
	C457.308685,613.857971 457.354065,621.286987 457.273712,628.714722 
	C457.255798,630.370605 457.976135,632.846558 455.169037,632.922913 
	C452.443726,632.997070 452.772552,630.611084 452.761230,628.868042 
	C452.701660,619.714783 452.699951,610.560791 452.745270,601.407410 
	C452.753113,599.823914 452.290436,597.827332 454.297852,597.063416 
	C456.413910,596.257996 457.709625,597.773804 458.869476,599.245056 
	C464.843628,606.822998 470.809967,614.407043 476.758179,622.005310 
	C477.156128,622.513672 477.381592,623.157104 477.687317,623.737671 
	C478.113770,623.562927 478.540222,623.388245 478.966675,623.213501 
	C478.966675,618.974426 478.966675,614.735413 478.965759,610.002319 
z"/>
<path fill="#000000" opacity="1.000000" stroke="none" 
	d="
M424.244080,596.824585 
	C435.527832,594.274353 445.050537,599.472351 447.772369,609.347046 
	C450.573425,619.509216 445.491119,629.773743 436.164948,632.790039 
	C426.192566,636.015442 415.556213,631.370422 412.192688,622.321167 
	C408.207611,611.599731 412.875275,601.435181 424.244080,596.824585 
M427.068329,628.755554 
	C428.230896,628.799011 429.396118,628.916077 430.555573,628.873901 
	C438.394989,628.589233 443.615723,622.992554 443.662964,614.863281 
	C443.709869,606.790283 438.401581,601.195618 430.495209,600.985107 
	C423.132141,600.789001 417.511627,604.997192 416.284058,611.625122 
	C414.745300,619.933289 418.107758,625.677917 427.068329,628.755554 
z"/>
<path fill="#000000" opacity="1.000000" stroke="none" 
	d="
M375.796875,599.429932 
	C378.211426,594.967346 380.298767,596.960449 382.177155,599.380798 
	C387.274170,605.948364 392.280792,612.585938 397.344696,619.179321 
	C398.450256,620.618835 399.645050,621.989807 401.941467,623.282837 
	C401.941467,617.975830 401.927795,612.668823 401.947510,607.361938 
	C401.956757,604.868652 401.941895,602.369751 402.107483,599.884705 
	C402.209656,598.351318 402.659180,596.815674 404.707428,596.925476 
	C406.699890,597.032227 407.071930,598.527161 407.094452,600.101135 
	C407.156250,604.424133 407.151062,608.748230 407.150452,613.071899 
	C407.149719,618.393677 407.160339,623.715820 407.093109,629.036926 
	C407.072662,630.653931 407.256317,632.515564 405.054108,633.056946 
	C403.126251,633.530823 401.942627,632.430908 400.868896,631.039185 
	C395.079376,623.535095 389.282196,616.036743 383.449768,608.566040 
	C382.787628,607.717957 382.357300,606.469666 380.360382,606.495300 
	C380.360382,613.765442 380.422089,621.023438 380.316498,628.278992 
	C380.290497,630.065430 381.131073,632.868530 378.079712,632.891113 
	C375.047028,632.913574 375.770569,630.128479 375.756653,628.318420 
	C375.683807,618.839783 375.741241,609.360046 375.796875,599.429932 
z"/>
<path fill="#000000" opacity="1.000000" stroke="none" 
	d="
M361.780701,605.297119 
	C365.424866,614.565491 369.863770,623.121765 372.702942,632.309143 
	C369.328400,634.196777 367.657166,632.496826 367.104858,630.043030 
	C365.749573,624.021851 361.872375,622.558167 356.394287,623.312317 
	C355.249786,623.469849 354.043732,623.477783 352.902405,623.308899 
	C348.571503,622.667847 346.042969,624.412964 344.790741,628.638428 
	C344.022705,631.230164 343.126251,634.375671 338.970947,632.704590 
	C338.588715,629.770813 340.310486,627.561279 341.295959,625.179077 
	C344.606140,617.177124 348.015991,609.215942 351.447083,601.264709 
	C352.271576,599.354065 352.649994,596.933716 355.487366,596.785583 
	C358.639587,596.621033 359.087769,599.234436 360.065521,601.269653 
	C360.641632,602.468750 361.100769,603.724121 361.780701,605.297119 
M352.607910,610.057983 
	C351.728638,612.777466 349.837982,615.235779 350.155121,618.573975 
	C354.134094,618.678894 357.841034,619.581482 361.793762,617.671936 
	C360.358887,612.751709 358.279388,608.404236 355.636688,603.270630 
	C354.490753,605.844788 353.701904,607.616821 352.607910,610.057983 
z"/>
<path fill="#000000" opacity="1.000000" stroke="none" 
	d="
M307.713409,625.181152 
	C311.186188,627.952454 314.942261,626.311584 318.474609,626.700500 
	C320.829742,626.959900 323.293701,626.635010 323.260681,630.170471 
	C323.230011,633.461304 320.922150,633.276917 318.750702,633.289734 
	C314.102356,633.317322 309.452148,633.212280 304.805573,633.304565 
	C301.832672,633.363647 300.647644,632.068237 300.669067,629.126404 
	C300.737915,619.663818 300.707123,610.200134 300.658600,600.737183 
	C300.645325,598.151428 301.467468,596.649963 304.376984,596.750977 
	C307.306183,596.852722 307.351898,598.814026 307.368896,600.890564 
	C307.434082,608.856689 307.492676,616.822754 307.713409,625.181152 
z"/>
<path fill="#000000" opacity="1.000000" stroke="none" 
	d="
M271.849670,533.914246 
	C263.163544,532.722900 260.079529,529.728821 259.747101,521.826111 
	C267.351959,521.516541 274.923767,521.350525 282.552338,521.924683 
	C281.949951,529.256104 279.266846,532.205688 271.849670,533.914246 
z"/>
<path fill="#000000" opacity="1.000000" stroke="none" 
	d="
M286.768555,398.420349 
	C285.900757,402.688843 283.772217,405.383972 279.601593,404.868011 
	C275.269104,404.332062 273.667267,401.141724 273.739899,397.001312 
	C273.763092,395.679718 273.677551,394.346954 273.818726,393.038422 
	C274.237061,389.161621 276.587189,386.981689 280.344269,386.889648 
	C283.970825,386.800812 286.178741,388.981659 286.670502,392.588745 
	C286.913544,394.371643 286.790466,396.204468 286.768555,398.420349 
z"/>
<path fill="#000000" opacity="1.000000" stroke="none" 
	d="
M251.880737,399.153564 
	C253.275635,401.614197 254.645721,403.717468 255.501663,406.012512 
	C256.932465,409.848969 254.951324,413.460663 251.083420,414.441681 
	C247.722488,415.294159 245.047455,414.031494 243.716919,410.973572 
	C242.148926,407.369904 238.891556,403.602081 242.739273,399.613007 
	C245.324036,396.933258 248.442673,396.443512 251.880737,399.153564 
z"/>
<path fill="#000000" opacity="1.000000" stroke="none" 
	d="
M312.007385,397.089325 
	C315.789703,397.755219 318.578033,399.428497 318.324677,403.201599 
	C318.047638,407.327271 316.979462,411.571503 312.973724,413.771790 
	C308.898773,416.010132 303.875671,412.673523 303.795746,408.001740 
	C303.724518,403.839325 307.439178,398.667114 312.007385,397.089325 
z"/>
<path fill="#000000" opacity="1.000000" stroke="none" 
	d="
M254.555527,454.825348 
	C258.478790,451.597870 262.904236,449.990631 266.955994,447.717590 
	C268.399628,446.907745 269.935669,446.790344 270.784393,448.550110 
	C271.518982,450.073181 270.429047,451.052399 269.307617,451.843262 
	C266.763184,453.637604 263.489014,454.240051 260.940582,456.942230 
	C263.607300,458.316559 266.106781,459.511658 268.509155,460.877502 
	C269.959595,461.702118 271.570648,462.791077 270.445709,464.795532 
	C269.488556,466.500977 267.867126,465.957764 266.476807,465.279572 
	C263.188660,463.675568 259.908020,462.051941 256.675201,460.340179 
	C254.608185,459.245728 253.133728,457.754730 254.555527,454.825348 
z"/>
<path fill="#000000" opacity="1.000000" stroke="none" 
	d="
M305.111328,458.288269 
	C301.296875,461.603546 296.772980,463.022186 292.743103,465.335449 
	C291.310028,466.158112 289.762482,466.329468 288.924377,464.538361 
	C288.080414,462.734711 289.409210,461.745300 290.746796,460.973755 
	C293.032196,459.655518 295.369507,458.427246 298.492340,456.719788 
	C295.400360,454.884064 292.916382,453.430969 290.455475,451.939819 
	C289.074005,451.102783 287.970856,449.950684 288.830170,448.265656 
	C289.746490,446.468933 291.313690,446.963776 292.713318,447.708649 
	C296.241150,449.585999 299.746185,451.506317 303.255066,453.419098 
	C305.086426,454.417389 305.906128,455.880035 305.111328,458.288269 
z"/>
<path fill="#000000" opacity="1.000000" stroke="none" 
	d="
M278.152405,452.201721 
	C279.509796,448.936157 280.634247,445.984863 281.939545,443.115814 
	C282.680817,441.486603 283.973083,440.272705 285.894653,441.319977 
	C287.635986,442.269043 287.057526,443.819000 286.445465,445.252136 
	C283.185638,452.884949 279.965302,460.535004 276.644867,468.141357 
	C275.926086,469.787964 274.953430,471.851501 272.645264,470.712677 
	C270.673645,469.739838 271.532288,467.798431 272.147156,466.298309 
	C274.035706,461.690765 276.037415,457.129608 278.152405,452.201721 
z"/>
<path fill="#000000" opacity="1.000000" stroke="none" 
	d="
M327.357117,618.048157 
	C330.274323,618.060730 332.750641,618.028076 335.218018,618.161499 
	C336.488525,618.230286 337.406769,618.968384 337.378632,620.382690 
	C337.347900,621.929688 336.177429,622.232910 334.973267,622.263794 
	C332.334015,622.331604 329.689636,622.387451 327.052887,622.293274 
	C325.526703,622.238892 323.278717,622.787598 323.203949,620.383240 
	C323.131927,618.066711 325.395905,618.429199 327.357117,618.048157 
z"/>
</svg>